<svg xmlns="http://www.w3.org/2000/svg" viewBox="0 0 1600 900" fill="none">
  <rect width="1600" height="900" fill="#FFFFFF"/>
  <rect x="0" y="0" width="1600" height="900" fill="url(#g)"/>
  <defs>
    <linearGradient id="g" x1="0" y1="0" x2="1600" y2="900" gradientUnits="userSpaceOnUse">
      <stop stop-color="#FFFFFF"/>
      <stop offset="1" stop-color="#EFEFEF"/>
    </linearGradient>
  </defs>
  <rect x="250" y="190" width="1100" height="520" rx="48" fill="#0B0B0B"/>
  <rect x="320" y="260" width="960" height="380" rx="28" fill="#FFFFFF"/>
  <rect x="365" y="305" width="280" height="24" rx="12" fill="#111111"/>
  <rect x="365" y="350" width="520" height="16" rx="8" fill="#D8D8D8"/>
  <rect x="365" y="382" width="480" height="16" rx="8" fill="#D8D8D8"/>
  <rect x="365" y="440" width="250" height="20" rx="10" fill="#111111"/>
  <rect x="365" y="478" width="410" height="16" rx="8" fill="#D8D8D8"/>
  <path d="M910 350l160 90-160 90V350Z" fill="#111111"/>
  <rect x="1090" y="304" width="140" height="226" rx="24" fill="#F4F4F4" stroke="#111111" stroke-width="6"/>
  <circle cx="1160" cy="372" r="28" fill="#111111"/>
  <path d="M1124 454h72" stroke="#111111" stroke-width="8" stroke-linecap="round"/>
  <path d="M1110 610c66-44 148-66 230-66" stroke="#111111" stroke-width="10" stroke-linecap="round" opacity="0.15"/>
</svg>