<svg xmlns="http://www.w3.org/2000/svg" viewBox="0 0 1600 900" fill="none">
  <rect width="1600" height="900" fill="#FFFFFF"/>
  <rect x="0" y="0" width="1600" height="900" fill="url(#g)"/>
  <defs>
    <linearGradient id="g" x1="0" y1="0" x2="1600" y2="900" gradientUnits="userSpaceOnUse">
      <stop stop-color="#FFFFFF"/>
      <stop offset="1" stop-color="#F2F2F2"/>
    </linearGradient>
  </defs>
  <path d="M280 680C280 460 460 280 680 280h240c220 0 400 180 400 400 0 48-10 94-28 136H308c-18-42-28-88-28-136Z" fill="#111111"/>
  <rect x="390" y="350" width="820" height="260" rx="28" fill="#FFFFFF"/>
  <rect x="440" y="402" width="280" height="18" rx="9" fill="#111111"/>
  <rect x="440" y="438" width="420" height="14" rx="7" fill="#D8D8D8"/>
  <rect x="440" y="468" width="360" height="14" rx="7" fill="#D8D8D8"/>
  <rect x="440" y="520" width="170" height="22" rx="11" fill="#111111"/>
  <circle cx="1040" cy="450" r="82" fill="#111111"/>
  <circle cx="1040" cy="450" r="34" fill="#FFFFFF"/>
  <path d="M1010 450h60" stroke="#111111" stroke-width="6" stroke-linecap="round"/>
  <path d="M1040 420v60" stroke="#111111" stroke-width="6" stroke-linecap="round"/>
</svg>