<svg xmlns="http://www.w3.org/2000/svg" viewBox="0 0 1600 900" fill="none">
  <rect width="1600" height="900" fill="#FFFFFF"/>
  <circle cx="1230" cy="180" r="320" fill="#F0F0F0"/>
  <circle cx="250" cy="740" r="260" fill="#F4F4F4"/>
  <rect x="420" y="170" width="760" height="560" rx="48" fill="#0B0B0B"/>
  <rect x="485" y="235" width="630" height="428" rx="28" fill="#FFFFFF"/>
  <rect x="540" y="285" width="210" height="22" rx="11" fill="#111111"/>
  <rect x="540" y="330" width="380" height="14" rx="7" fill="#D9D9D9"/>
  <rect x="540" y="360" width="320" height="14" rx="7" fill="#D9D9D9"/>
  <rect x="540" y="420" width="250" height="22" rx="11" fill="#111111"/>
  <rect x="540" y="465" width="340" height="14" rx="7" fill="#D9D9D9"/>
  <rect x="540" y="495" width="280" height="14" rx="7" fill="#D9D9D9"/>
  <rect x="920" y="285" width="130" height="130" rx="24" fill="#111111"/>
  <circle cx="985" cy="350" r="38" fill="#FFFFFF"/>
  <path d="M960 390c10-16 30-26 49-26s39 10 49 26" stroke="#FFFFFF" stroke-width="8" stroke-linecap="round"/>
  <rect x="920" y="450" width="130" height="20" rx="10" fill="#D9D9D9"/>
  <rect x="920" y="484" width="100" height="20" rx="10" fill="#D9D9D9"/>
</svg>